<svg width="24" height="24" viewBox="0 0 24 24" fill="none" xmlns="http://www.w3.org/2000/svg">
<g clip-path="url(#clip0_1868_35355)">
<path d="M10.7161 2.39163L1.76865 6.02719C1.27079 6.22934 1.27648 6.9236 1.77722 7.1186L10.7619 10.617C11.5511 10.9242 12.4304 10.9242 13.2196 10.617L22.205 7.1186C22.7057 6.9236 22.7107 6.22934 22.2129 6.02719L13.2653 2.39163C12.4496 2.06017 11.5325 2.06017 10.7161 2.39163Z" fill="#FCB400"/>
<path d="M12.7871 12.5276V21.268C12.7871 21.683 13.2143 21.968 13.6078 21.8152L23.6196 17.9989C23.731 17.9553 23.8267 17.8803 23.8945 17.7824C23.9617 17.6853 23.9981 17.5696 23.9981 17.4517V8.71208C23.9981 8.29638 23.571 8.01139 23.1774 8.16493L13.1656 11.9805C13.0542 12.0241 12.9585 12.0998 12.8907 12.1969C12.8235 12.2948 12.7871 12.4098 12.7871 12.5276Z" fill="#18BFFF"/>
<path d="M10.4484 12.9784L7.47707 14.3868L7.17561 14.5304L0.903035 17.481C0.505885 17.6696 -0.00195312 17.3846 -0.00195312 16.9511V8.74852C-0.00195312 8.59136 0.0802093 8.45563 0.190161 8.35425C0.235159 8.30992 0.285916 8.27208 0.341628 8.24208C0.491622 8.15349 0.705163 8.12992 0.887299 8.20064L10.3983 11.9012C10.8819 12.0898 10.9198 12.7548 10.4484 12.9784Z" fill="#F82B60"/>
<path d="M10.4496 12.9784L7.47832 14.3868L0.191406 8.35425C0.236405 8.30992 0.287162 8.27208 0.342874 8.24208C0.492868 8.15349 0.706409 8.12992 0.888545 8.20064L10.3996 11.9012C10.8832 12.0898 10.921 12.7548 10.4496 12.9784Z" fill="black" fill-opacity="0.25"/>
</g>
<defs>
<clipPath id="clip0_1868_35355">
<rect width="24" height="24" fill="white"/>
</clipPath>
</defs>
</svg>
