<svg width="24" height="24" viewBox="0 0 24 24" fill="none" xmlns="http://www.w3.org/2000/svg">
<g clip-path="url(#clip0_583_11261)">
<path d="M23.9886 12.2245C23.9886 11.2413 23.9069 10.5238 23.7302 9.77966H12.239V14.2176H18.9841C18.8481 15.3205 18.1137 16.9814 16.4819 18.0976L16.4591 18.2461L20.0923 20.9964L20.3441 21.0209C22.6557 18.9348 23.9886 15.8653 23.9886 12.2245Z" fill="#4285F4"/>
<path d="M12.239 23.9176C15.5436 23.9176 18.3177 22.8545 20.344 21.0209L16.4818 18.0976C15.4484 18.8018 14.0612 19.2935 12.239 19.2935C9.00248 19.2935 6.25552 17.2074 5.27629 14.3239L5.13276 14.3359L1.35482 17.1928L1.30542 17.3269C3.31805 21.2334 7.45214 23.9176 12.239 23.9176Z" fill="#34A853"/>
<path d="M5.27634 14.3239C5.01797 13.5799 4.86844 12.7825 4.86844 11.9588C4.86844 11.1349 5.01797 10.3377 5.26274 9.59359L5.2559 9.43512L1.43063 6.53239L1.30547 6.59057C0.475969 8.21166 0 10.0321 0 11.9588C0 13.8854 0.475969 15.7058 1.30547 17.3269L5.27634 14.3239Z" fill="#FBBC05"/>
<path d="M12.239 4.62403C14.5372 4.62403 16.0874 5.59402 16.9714 6.40462L20.4255 3.10928C18.3042 1.1826 15.5436 0 12.239 0C7.45214 0 3.31805 2.68406 1.30542 6.59057L5.26271 9.59359C6.25552 6.7102 9.00248 4.62403 12.239 4.62403Z" fill="#EB4335"/>
</g>
<defs>
<clipPath id="clip0_583_11261">
<rect width="24" height="24" fill="white"/>
</clipPath>
</defs>
</svg>
