<svg width="24" height="24" viewBox="0 0 24 24" fill="none" xmlns="http://www.w3.org/2000/svg">
<mask id="mask0_929_10280" style="mask-type:luminance" maskUnits="userSpaceOnUse" x="3" y="0" width="18" height="24">
<path d="M14.1818 0H4.90907C4.00907 0 3.27271 0.736364 3.27271 1.63636V22.3636C3.27271 23.2636 4.00907 24 4.90907 24H19.0909C19.9909 24 20.7272 23.2636 20.7272 22.3636V6.54545L14.1818 0Z" fill="white"/>
</mask>
<g mask="url(#mask0_929_10280)">
<path d="M14.1818 0H4.90907C4.00907 0 3.27271 0.736364 3.27271 1.63636V22.3636C3.27271 23.2636 4.00907 24 4.90907 24H19.0909C19.9909 24 20.7272 23.2636 20.7272 22.3636V6.54545L16.9091 3.81818L14.1818 0Z" fill="#0F9D58"/>
</g>
<mask id="mask1_929_10280" style="mask-type:luminance" maskUnits="userSpaceOnUse" x="3" y="0" width="18" height="24">
<path d="M14.1818 0H4.90907C4.00907 0 3.27271 0.736364 3.27271 1.63636V22.3636C3.27271 23.2636 4.00907 24 4.90907 24H19.0909C19.9909 24 20.7272 23.2636 20.7272 22.3636V6.54545L14.1818 0Z" fill="white"/>
</mask>
<g mask="url(#mask1_929_10280)">
<path d="M7.63623 11.7272V19.6363H16.3635V11.7272H7.63623ZM11.4544 18.5454H8.72714V17.1818H11.4544V18.5454ZM11.4544 16.3636H8.72714V15H11.4544V16.3636ZM11.4544 14.1818H8.72714V12.8181H11.4544V14.1818ZM15.2726 18.5454H12.5453V17.1818H15.2726V18.5454ZM15.2726 16.3636H12.5453V15H15.2726V16.3636ZM15.2726 14.1818H12.5453V12.8181H15.2726V14.1818Z" fill="#F1F1F1"/>
</g>
<mask id="mask2_929_10280" style="mask-type:luminance" maskUnits="userSpaceOnUse" x="3" y="0" width="18" height="24">
<path d="M14.1818 0H4.90907C4.00907 0 3.27271 0.736364 3.27271 1.63636V22.3636C3.27271 23.2636 4.00907 24 4.90907 24H19.0909C19.9909 24 20.7272 23.2636 20.7272 22.3636V6.54545L14.1818 0Z" fill="white"/>
</mask>
<g mask="url(#mask2_929_10280)">
<path d="M14.6604 6.06686L20.7272 12.1323V6.5455L14.6604 6.06686Z" fill="url(#paint0_linear_929_10280)"/>
</g>
<mask id="mask3_929_10280" style="mask-type:luminance" maskUnits="userSpaceOnUse" x="3" y="0" width="18" height="24">
<path d="M14.1818 0H4.90907C4.00907 0 3.27271 0.736364 3.27271 1.63636V22.3636C3.27271 23.2636 4.00907 24 4.90907 24H19.0909C19.9909 24 20.7272 23.2636 20.7272 22.3636V6.54545L14.1818 0Z" fill="white"/>
</mask>
<g mask="url(#mask3_929_10280)">
<path d="M14.1819 0V4.90909C14.1819 5.81318 14.9142 6.54545 15.8182 6.54545H20.7273L14.1819 0Z" fill="#87CEAC"/>
</g>
<mask id="mask4_929_10280" style="mask-type:luminance" maskUnits="userSpaceOnUse" x="3" y="0" width="18" height="24">
<path d="M14.1818 0H4.90907C4.00907 0 3.27271 0.736364 3.27271 1.63636V22.3636C3.27271 23.2636 4.00907 24 4.90907 24H19.0909C19.9909 24 20.7272 23.2636 20.7272 22.3636V6.54545L14.1818 0Z" fill="white"/>
</mask>
<g mask="url(#mask4_929_10280)">
<path d="M4.90907 0C4.00907 0 3.27271 0.736364 3.27271 1.63636V1.77273C3.27271 0.872727 4.00907 0.136364 4.90907 0.136364H14.1818V0H4.90907Z" fill="white" fill-opacity="0.2"/>
</g>
<mask id="mask5_929_10280" style="mask-type:luminance" maskUnits="userSpaceOnUse" x="3" y="0" width="18" height="24">
<path d="M14.1818 0H4.90907C4.00907 0 3.27271 0.736364 3.27271 1.63636V22.3636C3.27271 23.2636 4.00907 24 4.90907 24H19.0909C19.9909 24 20.7272 23.2636 20.7272 22.3636V6.54545L14.1818 0Z" fill="white"/>
</mask>
<g mask="url(#mask5_929_10280)">
<path d="M19.0909 23.8637H4.90907C4.00907 23.8637 3.27271 23.1273 3.27271 22.2273V22.3637C3.27271 23.2637 4.00907 24 4.90907 24H19.0909C19.9909 24 20.7272 23.2637 20.7272 22.3637V22.2273C20.7272 23.1273 19.9909 23.8637 19.0909 23.8637Z" fill="#263238" fill-opacity="0.2"/>
</g>
<mask id="mask6_929_10280" style="mask-type:luminance" maskUnits="userSpaceOnUse" x="3" y="0" width="18" height="24">
<path d="M14.1818 0H4.90907C4.00907 0 3.27271 0.736364 3.27271 1.63636V22.3636C3.27271 23.2636 4.00907 24 4.90907 24H19.0909C19.9909 24 20.7272 23.2636 20.7272 22.3636V6.54545L14.1818 0Z" fill="white"/>
</mask>
<g mask="url(#mask6_929_10280)">
<path d="M15.8182 6.54545C14.9142 6.54545 14.1819 5.81318 14.1819 4.90909V5.04545C14.1819 5.94954 14.9142 6.68182 15.8182 6.68182H20.7273V6.54545H15.8182Z" fill="#263238" fill-opacity="0.1"/>
</g>
<path d="M14.1818 0H4.90907C4.00907 0 3.27271 0.736364 3.27271 1.63636V22.3636C3.27271 23.2636 4.00907 24 4.90907 24H19.0909C19.9909 24 20.7272 23.2636 20.7272 22.3636V6.54545L14.1818 0Z" fill="url(#paint1_radial_929_10280)"/>
<defs>
<linearGradient id="paint0_linear_929_10280" x1="318.034" y1="58.1455" x2="318.034" y2="612.697" gradientUnits="userSpaceOnUse">
<stop stop-color="#263238" stop-opacity="0.2"/>
<stop offset="1" stop-color="#263238" stop-opacity="0.02"/>
</linearGradient>
<radialGradient id="paint1_radial_929_10280" cx="0" cy="0" r="1" gradientUnits="userSpaceOnUse" gradientTransform="translate(58.5696 47.4346) scale(2814.52 2814.52)">
<stop stop-color="white" stop-opacity="0.1"/>
<stop offset="1" stop-color="white" stop-opacity="0"/>
</radialGradient>
</defs>
</svg>
