<svg width="24" height="24" viewBox="0 0 24 24" fill="none" xmlns="http://www.w3.org/2000/svg">
<path fill-rule="evenodd" clip-rule="evenodd" d="M15.2572 0.0547391L1.94719 1.0349C0.873991 1.1278 0.5 1.82793 0.5 2.6674V17.2253C0.5 17.8794 0.733094 18.4384 1.29373 19.1856L4.42254 23.2451C4.93644 23.8987 5.40354 24.0386 6.3849 23.9917L21.8416 23.0584C23.1489 22.9655 23.5228 22.3585 23.5228 21.3321V4.95393C23.5228 4.42337 23.3129 4.27011 22.694 3.81825C22.6599 3.79338 22.6247 3.76759 22.5881 3.74081L18.3394 0.754723C17.3121 0.00842915 16.8916 -0.0854545 15.2572 0.0547391ZM6.73535 4.68535C5.4734 4.77052 5.18669 4.78991 4.46998 4.2077L2.6476 2.76129C2.46173 2.57422 2.55491 2.34084 3.02159 2.2946L15.8176 1.36132C16.8914 1.26778 17.4517 1.6417 17.8722 1.96819L20.0669 3.5548C20.1604 3.60125 20.3934 3.88087 20.1131 3.88087L6.89824 4.67431C6.84266 4.67811 6.78756 4.68183 6.73535 4.68535ZM5.26342 21.1918V7.2874C5.26342 6.68094 5.45028 6.40077 6.01035 6.35369L21.1872 5.46748C21.7019 5.42082 21.935 5.74765 21.935 6.35369V20.1648C21.935 20.7718 21.8414 21.2858 21.0005 21.3321L6.47738 22.1724C5.63685 22.2185 5.26342 21.9391 5.26342 21.1918ZM19.6007 8.03327C19.6938 8.45364 19.6007 8.87359 19.1796 8.92088L18.4798 9.0603V19.3254C17.8722 19.652 17.312 19.8386 16.8451 19.8386C16.0977 19.8386 15.9104 19.6051 15.3505 18.9056L10.7734 11.72V18.6723L12.2218 18.9992C12.2218 18.9992 12.2218 19.8386 11.0532 19.8386L7.83174 20.0255C7.73814 19.8386 7.83174 19.3724 8.15858 19.279L8.99918 19.046V9.85382L7.83195 9.76022C7.73835 9.33985 7.97151 8.73382 8.62575 8.68673L12.0816 8.45385L16.8451 15.733V9.29354L15.6307 9.15419C15.5374 8.64035 15.9104 8.26714 16.3775 8.2209L19.6007 8.03327Z" fill="#03060D" fill-opacity="0.9"/>
</svg>
