<svg width="24" height="24" viewBox="0 0 24 24" fill="none" xmlns="http://www.w3.org/2000/svg">
<path d="M24 7.32214H22.6746C22.3066 7.32214 21.9629 7.5058 21.7562 7.81189L19.9834 10.4455C19.9724 10.4617 19.9578 10.4749 19.9406 10.484C19.9235 10.4932 19.9044 10.4979 19.885 10.4979C19.8656 10.4979 19.8465 10.4932 19.8293 10.484C19.8122 10.4749 19.7975 10.4617 19.7866 10.4455L18.0138 7.81221C17.9122 7.66113 17.7754 7.53744 17.6154 7.452C17.4553 7.36656 17.2768 7.32197 17.0957 7.32214H15.7699L18.9283 12.0134L15.7875 16.6778H17.1133C17.481 16.6778 17.8246 16.4945 18.031 16.1881L19.7866 13.5805C19.7975 13.5643 19.8122 13.5511 19.8293 13.5419C19.8465 13.5327 19.8657 13.5279 19.8851 13.5279C19.9046 13.5279 19.9237 13.5327 19.9409 13.5419C19.9581 13.5511 19.9728 13.5643 19.9837 13.5805L21.7389 16.1881C21.8405 16.3392 21.9773 16.4628 22.1375 16.5482C22.2976 16.6336 22.4761 16.6781 22.6573 16.6778H23.9827L20.8419 12.0134L24 7.32214ZM13.0426 8.27908V16.6778H13.6762C13.9282 16.6778 14.17 16.577 14.3482 16.3976C14.5264 16.2181 14.6266 15.9747 14.6266 15.7209V7.32214H13.993C13.7409 7.32214 13.4992 7.42296 13.3209 7.60242C13.1427 7.78188 13.0426 8.02528 13.0426 8.27908ZM11.8803 7.32214H11.3165C11.0151 7.32188 10.7225 7.42487 10.487 7.61417C10.2514 7.80347 10.0868 8.06784 10.0202 8.36381L8.75872 13.9469L7.65472 8.73531C7.45056 7.77193 6.4688 7.12238 5.46432 7.40173C4.82464 7.57958 4.3504 8.12378 4.21184 8.77752L3.11904 13.9401L1.86016 8.36414C1.79307 8.06827 1.62824 7.80408 1.39264 7.6148C1.15704 7.42551 0.864611 7.32234 0.5632 7.32214H0L2.11328 16.6775H2.91392C3.26654 16.6776 3.6085 16.5558 3.88262 16.3325C4.15674 16.1092 4.34638 15.7978 4.41984 15.4506L5.77056 9.06782C5.77897 9.02933 5.8001 8.99485 5.83051 8.97004C5.86091 8.94522 5.89878 8.93153 5.93792 8.93121C6.01792 8.93121 6.08864 8.98856 6.10528 9.0675L7.4576 15.4509C7.53112 15.7981 7.72079 16.1094 7.9949 16.3326C8.26902 16.5559 8.61095 16.6777 8.96352 16.6775H9.76672L11.8803 7.32214Z" fill="black"/>
</svg>
