<svg width="24" height="24" viewBox="0 0 24 24" fill="none" xmlns="http://www.w3.org/2000/svg">
<path d="M0 12.0001C0 16.7488 2.76033 20.8548 6.7642 22.7996L1.03913 7.11764C0.372875 8.60851 0 10.2607 0 12.0001Z" fill="#05354B"/>
<path d="M12.212 13.0486L8.61012 23.5109C9.68509 23.8257 10.8237 24 12.0001 24C13.3978 24 14.7388 23.7578 15.9859 23.3199C15.9547 23.2679 15.9246 23.2125 15.8998 23.1535L12.212 13.0486Z" fill="#05354B"/>
<path d="M20.1019 11.3933C20.1019 9.91035 19.5679 8.88387 19.1121 8.08534C18.5039 7.09637 17.9334 6.25996 17.9334 5.26973C17.9334 4.16874 18.7698 3.14139 19.9486 3.14139C20.0026 3.14139 20.0535 3.14854 20.1035 3.15091C17.9697 1.19534 15.125 0 12.0001 0C7.80728 0 4.25044 2.11659 2.08379 5.24452C2.36509 5.25479 5.9437 5.26973 5.9437 5.26973C6.59063 5.23348 6.66711 6.18347 6.02134 6.26002C6.02134 6.26002 5.37078 6.33575 4.64725 6.3736L9.01757 19.3703L11.6434 11.4958L9.77419 6.37356C9.12772 6.33569 8.51612 6.31989 8.51612 6.31989C7.8696 6.28204 7.94523 5.38965 8.59105 5.38965H14.9513C15.5978 5.38965 15.6737 6.24336 15.0271 6.31989C15.0271 6.31989 14.3764 6.36561 13.6542 6.40353L17.9918 19.2873L19.1879 15.2808C19.7971 13.7214 20.1019 12.4214 20.1019 11.3933Z" fill="#05354B"/>
<path d="M22.531 6.24253C22.5827 6.62604 22.6122 7.03637 22.6122 7.47742C22.6122 8.69444 22.3843 10.0626 21.6986 11.7743L18.0336 22.3712C21.6024 20.2914 24.0017 16.4268 24.0017 12C24.0017 9.91347 23.4684 7.95198 22.531 6.24253Z" fill="#05354B"/>
</svg>
