<svg width="25" height="24" viewBox="0 0 25 24" fill="none" xmlns="http://www.w3.org/2000/svg">
<path d="M12.1426 3.5C12.1999 3.50001 19.744 3.50198 21.6299 4.00781C22.6752 4.28766 23.4964 5.10908 23.7764 6.1543C24.282 8.04703 24.2842 11.9985 24.2842 12C24.2842 12 24.2842 15.9526 23.7764 17.8457C23.4964 18.8909 22.6752 19.7124 21.6299 19.9922C19.744 20.498 12.1999 20.5 12.1426 20.5C12.1426 20.5 4.54741 20.5 2.6543 19.9922C1.60913 19.7123 0.787747 18.8909 0.507812 17.8457C5.15943e-05 15.9526 0 12 0 12C1.02528e-08 11.9989 0.0001236 8.04713 0.507812 6.1543C0.787755 5.10914 1.60915 4.28775 2.6543 4.00781C4.54741 3.50005 12.1426 3.5 12.1426 3.5ZM9.71191 15.6426L16.0205 12L9.71191 8.3584V15.6426Z" fill="#FF0000"/>
</svg>
